<svg xmlns="http://www.w3.org/2000/svg" version="1.1" xmlns:xlink="http://www.w3.org/1999/xlink" xmlns:svgjs="http://svgjs.dev/svgjs" width="1000" height="1125" viewBox="0 0 1000 1125"><g transform="matrix(1,0,0,1,1.7053025658242404e-13,0)"><svg viewBox="0 0 320 360" data-background-color="#ffffff" preserveAspectRatio="xMidYMid meet" height="1125" width="1000" xmlns="http://www.w3.org/2000/svg" xmlns:xlink="http://www.w3.org/1999/xlink"><g id="tight-bounds" transform="matrix(1,0,0,1,0,0)"><svg viewBox="0 0 320 360" height="360" width="320"><g><svg></svg></g><g><svg viewBox="0 0 320 360" height="360" width="320"><g><path xmlns="http://www.w3.org/2000/svg" d="M20.961 227.22l3.726 4.658-1.863-6.056c-0.466-2.795-3.726 0.466-1.863 1.398M25.153 224.425c1.397 2.329 2.795 4.658 2.795 6.987 0 3.261 2.795 4.658 5.123 5.589-3.261-3.726-5.124-13.974-7.918-12.576M204.017 26.929c7.918 0 15.371-0.932 23.756 0.931 20.495 5.124 37.729 15.371 49.374 29.811l32.606 52.169c1.397 13.042 4.192 27.482 3.726 43.319 3.261 0 2.795-4.658 6.521-5.59-3.726 9.316-5.59 20.961-6.521 34.469-2.329-7.453 0-18.632 0.466-24.687-3.261 5.124-5.124 1.397-5.124-0.932 0.466-3.726-1.397-3.261-2.795-4.658-5.124-4.658-8.384-9.782-12.11-17.7 2.329-6.055 2.795-14.905-4.658-19.563-2.329-1.397-5.124-3.726-6.521-7.453-1.863-5.124-5.124-11.179-4.193-19.097 0.466-2.329-6.987 5.124-11.179 1.863-18.166-12.576-36.332-27.016-58.224-39.127-11.645 0-20.029-4.192-24.221-9.316-3.726-4.658-0.932-10.713 4.658-11.179 3.261 0 6.987-0.932 9.782 0.932 0.466-1.863 2.329-4.192 4.657-4.192M157.904 16.215l0.932 0.466c4.658 0.932 6.987 7.453 12.11 5.124 0 3.261 0.466 6.521-0.466 8.85-1.397 3.726-5.59 3.726-8.85 3.726-31.208-1.863-49.374 11.179-68.471 22.358-5.124 3.261-10.713 5.59-14.906 9.782-20.029 18.632-41.921 35.866-47.045 70.335l-4.192 38.195c-0.466 4.192-5.124 8.384-4.192 13.508l3.26 22.824c-3.261-3.261-5.124 0.932-4.192 2.795 0.466 1.397 2.329 6.055 5.124 1.863 3.726 6.987 7.453 20.495 12.576 26.55 15.837 18.632 36.332 35.4 53.101 52.169 4.192-0.932 7.453-0.932 8.384-3.727 1.397 2.795-1.397 5.59-3.726 6.056 7.453 4.658 15.837 8.85 27.016 9.781 14.44 0.932 27.948 3.261 40.524 6.522 6.521-1.863 13.042-2.795 20.029-3.261 2.329 0 3.726-3.726 6.521-4.658l0.466-4.658c2.795 4.192 2.329-1.397 0.466-4.192 3.261 2.795 4.192 5.124 5.589 6.987 0-1.397 3.726-6.521 3.727-0.466l0.931-6.055c1.397-0.932 1.863 5.124 3.261 0.931 1.397-4.192 4.192-0.932 6.987-2.329-0.932 1.863-0.466 5.59 2.794 3.261l3.727-3.261c2.329 5.59 6.055 3.261 7.918 2.329 20.495-13.042 40.99-28.413 60.553-43.784l-0.466 6.055 2.329-7.453c2.329 2.329 4.192 0.466 5.124-0.931 2.795-4.658 6.521-9.316 12.577-13.508-7.453 20.029-16.303 35.866-27.482 48.908l-4.658 5.59c0 3.261-0.932 7.453-4.658 7.918-1.863 0.466-5.59-0.932-8.384 1.863-1.397 1.863 3.261 5.59-0.466 2.795-3.261-2.329-6.521 0-10.248 0.932-2.795 0.932 1.863 3.726 2.795 5.589 0.932 1.863 1.863 3.726 1.398 6.056l-5.124-5.59c-6.055 3.261-9.782 9.316-14.906 13.974-2.329 1.863-1.397 5.124-1.397 7.918-3.261 0-6.987-0.932-8.85 0.932-1.397 1.863-0.932 4.658-0.932 7.453-4.658-0.466-5.124-7.453-9.315-6.056-4.192 0.932-8.85 1.397-12.577 3.727 2.795 5.59-4.658 2.329-3.726 3.26-6.987-4.192-13.042-7.453-20.495-4.658-15.837-5.124-35.4-2.795-49.84-0.931 0-2.329 0.466-4.658-0.466-5.124-0.932 2.329-3.726 1.397-3.26 1.397-8.85-6.055-17.7-9.782-27.016-14.905-8.384 0.932-16.303-3.261-18.632-5.59-6.521-6.055-13.974-2.795-20.029-4.192-13.042-3.261-17.7-16.769-19.098-26.084-0.932-4.658-4.658-6.521-6.055-6.056-6.055-19.563-15.371-37.263-22.824-55.429-1.863-4.658-1.397-9.316-1.397-14.44 2.329 0.932 4.658 0.466 4.192-2.794-2.329-15.371-7.918-27.016-13.974-38.195 3.261-15.837 3.726-34.469 11.179-48.443 6.521-12.576 18.632-19.098 27.016-29.811 2.795-3.726 2.795-8.85 5.59-12.11 9.316-9.316 18.632-19.098 28.879-27.482 4.658-3.726 10.247 0 17.234-1.397 2.329-8.384 11.645-15.837 20.495-13.508 3.726 0.932 11.179-8.85 13.508-9.782 3.726-1.397 1.863 3.726 1.863 6.987 8.85-6.987 20.961-10.713 32.14-14.906" fill="#bb84e8" fill-rule="nonzero" stroke="none" stroke-width="1" stroke-linecap="butt" stroke-linejoin="miter" stroke-miterlimit="10" stroke-dasharray="" stroke-dashoffset="0" font-family="none" font-weight="none" font-size="none" text-anchor="none" style="mix-blend-mode: normal" data-fill-palette-color="tertiary"></path></g><g transform="matrix(1,0,0,1,97.9823243361502,90)"><svg viewBox="0 0 124.0353513276996 180" height="180" width="124.0353513276996"><g><svg viewBox="0 0 124.0353513276996 180" height="180" width="124.0353513276996"><g><svg viewBox="0 0 152.9161302578019 221.91176266904705" height="180" width="124.0353513276996"><g><svg viewBox="0 0 152.9161302578019 221.91176266904705" height="221.91176266904705" width="152.9161302578019"><g id="textblocktransform"><svg viewBox="0 0 152.9161302578019 221.91176266904705" height="221.91176266904705" width="152.9161302578019" id="textblock"><g><svg viewBox="0 0 152.9161302578019 178.88760000000002" height="178.88760000000002" width="152.9161302578019"><g transform="matrix(1,0,0,1,0,0)"><svg width="152.9161302578019" viewBox="0.30000001192092896 -36.400001525878906 31.5 36.85000228881836" height="178.88760000000002" data-palette-color="#bb84e8"><path d="M27.2-31.95Q27.7-33.3 27.7-34.3 27.7-35.3 27.2-35.9L27.2-35.9Q28.35-36.4 29.38-36.4 30.4-36.4 31.1-35.75 31.8-35.1 31.8-34.05 31.8-33 31.4-32L31.4-32 19.75-2.55Q19.05-0.8 18.4-0.18 17.75 0.45 16.48 0.45 15.2 0.45 14.53-0.2 13.85-0.85 13.25-2.55L13.25-2.55 2.15-32.05Q1.4-34.1 0.3-34.75L0.3-34.75Q1.55-36.25 3.25-36.25L3.25-36.25Q4.3-36.25 5.03-35.5 5.75-34.75 6.35-33.15L6.35-33.15 16.75-3.95 27.2-31.95Z" opacity="1" transform="matrix(1,0,0,1,0,0)" fill="#bb84e8" class="undefined-text-0" data-fill-palette-color="primary" id="text-0"></path></svg></g></svg></g><g transform="matrix(1,0,0,1,0,204.99159414240003)"><svg viewBox="0 0 152.9161302578019 16.92016852664703" height="16.92016852664703" width="152.9161302578019"><g transform="matrix(1,0,0,1,0,0)"><svg width="152.9161302578019" viewBox="1.809999942779541 -38.0099983215332 435.2799987792969 48.16999816894531" height="16.92016852664703" data-palette-color="#b19dd0"><path d="M22.19-9.16L22.19-9.16Q22.19-11.5 20.54-12.77 18.9-14.04 14.6-15.33 10.3-16.63 7.76-18.21L7.76-18.21Q2.91-21.26 2.91-26.17L2.91-26.17Q2.91-30.47 6.41-33.25 9.91-36.04 15.5-36.04L15.5-36.04Q19.21-36.04 22.12-34.67 25.02-33.3 26.68-30.77 28.34-28.25 28.34-25.17L28.34-25.17 22.19-25.17Q22.19-27.95 20.45-29.53 18.7-31.1 15.45-31.1L15.45-31.1Q12.43-31.1 10.75-29.81 9.08-28.52 9.08-26.2L9.08-26.2Q9.08-24.24 10.89-22.94 12.7-21.63 16.85-20.4 21-19.17 23.51-17.59 26.03-16.02 27.2-13.98 28.37-11.94 28.37-9.2L28.37-9.2Q28.37-4.76 24.96-2.14 21.56 0.49 15.72 0.49L15.72 0.49Q11.87 0.49 8.63-0.94 5.4-2.37 3.6-4.88 1.81-7.4 1.81-10.74L1.81-10.74 7.98-10.74Q7.98-7.71 9.99-6.05 11.99-4.39 15.72-4.39L15.72-4.39Q18.95-4.39 20.57-5.7 22.19-7.01 22.19-9.16ZM32.1-13.16L32.1-13.45Q32.1-17.33 33.64-20.45 35.18-23.56 37.96-25.23 40.74-26.9 44.36-26.9L44.36-26.9Q49.7-26.9 53.04-23.46 56.37-20.02 56.64-14.33L56.64-14.33 56.66-12.94Q56.66-9.03 55.16-5.96 53.66-2.88 50.86-1.2 48.07 0.49 44.41 0.49L44.41 0.49Q38.82 0.49 35.46-3.23 32.1-6.96 32.1-13.16L32.1-13.16ZM38.03-12.94L38.03-12.94Q38.03-8.86 39.72-6.56 41.4-4.25 44.41-4.25 47.41-4.25 49.08-6.59 50.75-8.94 50.75-13.45L50.75-13.45Q50.75-17.46 49.03-19.8 47.31-22.14 44.36-22.14L44.36-22.14Q41.45-22.14 39.74-19.84 38.03-17.53 38.03-12.94ZM69.7 0L63.76 0 63.76-22.02 59.74-22.02 59.74-26.42 63.76-26.42 63.76-28.83Q63.76-33.23 66.21-35.62 68.65-38.01 73.04-38.01L73.04-38.01Q74.6-38.01 76.36-37.57L76.36-37.57 76.22-32.93Q75.24-33.13 73.95-33.13L73.95-33.13Q69.7-33.13 69.7-28.76L69.7-28.76 69.7-26.42 75.07-26.42 75.07-22.02 69.7-22.02 69.7 0ZM80.9-32.84L86.83-32.84 86.83-26.42 91.5-26.42 91.5-22.02 86.83-22.02 86.83-7.28Q86.83-5.76 87.43-5.09 88.03-4.42 89.57-4.42L89.57-4.42Q90.59-4.42 91.64-4.66L91.64-4.66 91.64-0.07Q89.62 0.49 87.74 0.49L87.74 0.49Q80.9 0.49 80.9-7.06L80.9-7.06 80.9-22.02 76.56-22.02 76.56-26.42 80.9-26.42 80.9-32.84ZM113.74-26.42L119.23-8.18 123.43-26.42 129.21-26.42 122.01 0 117.13 0 111.46-18.14 105.9 0 101.02 0 93.79-26.42 99.57-26.42 103.85-8.37 109.27-26.42 113.74-26.42ZM155.02 0L148.96 0Q148.57-0.76 148.28-2.47L148.28-2.47Q145.45 0.49 141.34 0.49L141.34 0.49Q137.37 0.49 134.85-1.78 132.34-4.05 132.34-7.4L132.34-7.4Q132.34-11.62 135.47-13.88 138.61-16.14 144.45-16.14L144.45-16.14 148.08-16.14 148.08-17.87Q148.08-19.92 146.94-21.15 145.79-22.39 143.44-22.39L143.44-22.39Q141.42-22.39 140.12-21.37 138.83-20.36 138.83-18.8L138.83-18.8 132.9-18.8Q132.9-20.97 134.34-22.86 135.78-24.76 138.26-25.83 140.73-26.9 143.79-26.9L143.79-26.9Q148.43-26.9 151.18-24.57 153.94-22.24 154.02-18.02L154.02-18.02 154.02-6.1Q154.02-2.54 155.02-0.42L155.02-0.42 155.02 0ZM142.44-4.27L142.44-4.27Q144.2-4.27 145.75-5.13 147.3-5.98 148.08-7.42L148.08-7.42 148.08-12.4 144.88-12.4Q141.59-12.4 139.93-11.25 138.27-10.11 138.27-8.01L138.27-8.01Q138.27-6.3 139.4-5.29 140.54-4.27 142.44-4.27ZM174.08-26.56L174.06-21Q172.89-21.19 171.64-21.19L171.64-21.19Q167.56-21.19 166.15-18.07L166.15-18.07 166.15 0 160.21 0 160.21-26.42 165.88-26.42 166.03-23.46Q168.17-26.9 171.98-26.9L171.98-26.9Q173.25-26.9 174.08-26.56L174.08-26.56ZM188.97 0.49L188.97 0.49Q183.33 0.49 179.83-3.06 176.33-6.62 176.33-12.52L176.33-12.52 176.33-13.26Q176.33-17.21 177.85-20.32 179.38-23.44 182.14-25.17 184.89-26.9 188.29-26.9L188.29-26.9Q193.68-26.9 196.63-23.46 199.57-20.02 199.57-13.72L199.57-13.72 199.57-11.33 182.31-11.33Q182.58-8.06 184.49-6.15 186.41-4.25 189.31-4.25L189.31-4.25Q193.39-4.25 195.95-7.54L195.95-7.54 199.15-4.49Q197.57-2.12 194.92-0.82 192.27 0.49 188.97 0.49ZM188.26-22.14L188.26-22.14Q185.82-22.14 184.32-20.43 182.82-18.73 182.4-15.67L182.4-15.67 193.71-15.67 193.71-16.11Q193.51-19.09 192.12-20.62 190.73-22.14 188.26-22.14ZM227.42 0L217.19 0 217.19-35.55 227.69-35.55Q232.4-35.55 236.05-33.45 239.7-31.35 241.7-27.49 243.7-23.63 243.7-18.65L243.7-18.65 243.7-16.87Q243.7-11.82 241.69-7.98 239.67-4.15 235.95-2.08 232.23 0 227.42 0L227.42 0ZM227.69-30.57L223.37-30.57 223.37-4.93 227.39-4.93Q232.25-4.93 234.85-7.97 237.45-11.01 237.5-16.7L237.5-16.7 237.5-18.68Q237.5-24.46 234.99-27.51 232.47-30.57 227.69-30.57L227.69-30.57ZM260.91 0.49L260.91 0.49Q255.27 0.49 251.77-3.06 248.27-6.62 248.27-12.52L248.27-12.52 248.27-13.26Q248.27-17.21 249.79-20.32 251.32-23.44 254.08-25.17 256.84-26.9 260.23-26.9L260.23-26.9Q265.62-26.9 268.57-23.46 271.51-20.02 271.51-13.72L271.51-13.72 271.51-11.33 254.25-11.33Q254.52-8.06 256.43-6.15 258.35-4.25 261.25-4.25L261.25-4.25Q265.33-4.25 267.89-7.54L267.89-7.54 271.09-4.49Q269.51-2.12 266.86-0.82 264.21 0.49 260.91 0.49ZM260.2-22.14L260.2-22.14Q257.76-22.14 256.26-20.43 254.76-18.73 254.35-15.67L254.35-15.67 265.65-15.67 265.65-16.11Q265.45-19.09 264.06-20.62 262.67-22.14 260.2-22.14ZM279.44-26.42L285.1-7.52 290.7-26.42 296.82-26.42 287.67 0 282.52 0 273.29-26.42 279.44-26.42ZM311.84 0.49L311.84 0.49Q306.2 0.49 302.69-3.06 299.19-6.62 299.19-12.52L299.19-12.52 299.19-13.26Q299.19-17.21 300.71-20.32 302.24-23.44 305-25.17 307.76-26.9 311.15-26.9L311.15-26.9Q316.55-26.9 319.49-23.46 322.43-20.02 322.43-13.72L322.43-13.72 322.43-11.33 305.17-11.33Q305.44-8.06 307.36-6.15 309.27-4.25 312.18-4.25L312.18-4.25Q316.25-4.25 318.82-7.54L318.82-7.54 322.02-4.49Q320.43-2.12 317.78-0.82 315.13 0.49 311.84 0.49ZM311.13-22.14L311.13-22.14Q308.69-22.14 307.18-20.43 305.68-18.73 305.27-15.67L305.27-15.67 316.57-15.67 316.57-16.11Q316.38-19.09 314.98-20.62 313.59-22.14 311.13-22.14ZM333.34-37.5L333.34 0 327.41 0 327.41-37.5 333.34-37.5ZM338.69-13.16L338.69-13.45Q338.69-17.33 340.22-20.45 341.76-23.56 344.55-25.23 347.33-26.9 350.94-26.9L350.94-26.9Q356.29-26.9 359.62-23.46 362.95-20.02 363.22-14.33L363.22-14.33 363.25-12.94Q363.25-9.03 361.74-5.96 360.24-2.88 357.45-1.2 354.65 0.49 350.99 0.49L350.99 0.49Q345.4 0.49 342.04-3.23 338.69-6.96 338.69-13.16L338.69-13.16ZM344.62-12.94L344.62-12.94Q344.62-8.86 346.3-6.56 347.99-4.25 350.99-4.25 353.99-4.25 355.67-6.59 357.34-8.94 357.34-13.45L357.34-13.45Q357.34-17.46 355.62-19.8 353.9-22.14 350.94-22.14L350.94-22.14Q348.04-22.14 346.33-19.84 344.62-17.53 344.62-12.94ZM391.39-13.31L391.39-12.94Q391.39-6.81 388.61-3.16 385.83 0.49 381.14 0.49L381.14 0.49Q376.79 0.49 374.18-2.37L374.18-2.37 374.18 10.16 368.25 10.16 368.25-26.42 373.72-26.42 373.96-23.73Q376.57-26.9 381.07-26.9L381.07-26.9Q385.9-26.9 388.65-23.3 391.39-19.7 391.39-13.31L391.39-13.31ZM385.48-13.45L385.48-13.45Q385.48-17.41 383.91-19.73 382.34-22.05 379.41-22.05L379.41-22.05Q375.77-22.05 374.18-19.04L374.18-19.04 374.18-7.32Q375.79-4.25 379.45-4.25L379.45-4.25Q382.29-4.25 383.89-6.53 385.48-8.81 385.48-13.45ZM408.04 0.49L408.04 0.49Q402.4 0.49 398.9-3.06 395.39-6.62 395.39-12.52L395.39-12.52 395.39-13.26Q395.39-17.21 396.92-20.32 398.45-23.44 401.21-25.17 403.96-26.9 407.36-26.9L407.36-26.9Q412.75-26.9 415.69-23.46 418.64-20.02 418.64-13.72L418.64-13.72 418.64-11.33 401.38-11.33Q401.64-8.06 403.56-6.15 405.48-4.25 408.38-4.25L408.38-4.25Q412.46-4.25 415.02-7.54L415.02-7.54 418.22-4.49Q416.63-2.12 413.99-0.82 411.34 0.49 408.04 0.49ZM407.33-22.14L407.33-22.14Q404.89-22.14 403.39-20.43 401.89-18.73 401.47-15.67L401.47-15.67 412.78-15.67 412.78-16.11Q412.58-19.09 411.19-20.62 409.8-22.14 407.33-22.14ZM437.09-26.56L437.07-21Q435.9-21.19 434.65-21.19L434.65-21.19Q430.57-21.19 429.16-18.07L429.16-18.07 429.16 0 423.22 0 423.22-26.42 428.89-26.42 429.03-23.46Q431.18-26.9 434.99-26.9L434.99-26.9Q436.26-26.9 437.09-26.56L437.09-26.56Z" opacity="1" transform="matrix(1,0,0,1,0,0)" fill="#b19dd0" class="undefined-text-1" data-fill-palette-color="secondary" id="text-1"></path></svg></g></svg></g></svg></g></svg></g><g></g></svg></g></svg></g></svg></g></svg></g><defs></defs></svg><rect width="320" height="360" fill="none" stroke="none" visibility="hidden"></rect></g></svg></g></svg>